<svg width="72" height="73" viewBox="0 0 72 73" fill="none" xmlns="http://www.w3.org/2000/svg">
<g filter="url(#filter0_d_981_3353)">
<rect x="18.5078" width="53.5858" height="53.5858" rx="6" transform="rotate(15.7088 18.5078 0)" fill="white"/>
</g>
<path d="M24.3478 14.8386C24.7048 13.5694 26.023 12.8299 27.2922 13.1869L55.0723 21.0001C56.3415 21.3571 57.0811 22.6753 56.7241 23.9445L48.9109 51.7246C48.5539 52.9937 47.2357 53.7332 45.9665 53.3763L18.1863 45.5631C16.9171 45.2061 16.1776 43.8878 16.5346 42.6186L24.3478 14.8386Z" fill="#0A66C2"/>
<path d="M29.4338 24.6389C30.985 25.0752 32.5961 24.1714 33.0324 22.6202C33.4687 21.069 32.5649 19.4579 31.0137 19.0216C29.4625 18.5854 27.8514 19.4892 27.4151 21.0403C26.9789 22.5915 27.8827 24.2026 29.4338 24.6389Z" fill="white"/>
<path d="M34.2309 28.2279L38.8857 29.5371L38.286 31.6695C38.286 31.6695 40.2597 29.4985 43.6965 30.4651C46.7623 31.3274 48.8773 33.552 47.5825 38.1554L44.8523 47.8629L40.0286 46.5062L42.428 37.9751C43.1917 35.2594 41.8259 34.553 40.7212 34.2423C38.4284 33.5974 37.4796 35.4647 37.0885 36.8556L34.7887 45.0325L29.892 43.6553L34.2309 28.2279Z" fill="white"/>
<path d="M26.4017 26.026L31.2984 27.4032L26.9594 42.8305L22.0627 41.4533L26.4017 26.026Z" fill="white"/>
<defs>
<filter id="filter0_d_981_3353" x="0.398438" y="1.39893" width="71.2949" height="71.2949" filterUnits="userSpaceOnUse" color-interpolation-filters="sRGB">
<feFlood flood-opacity="0" result="BackgroundImageFix"/>
<feColorMatrix in="SourceAlpha" type="matrix" values="0 0 0 0 0 0 0 0 0 0 0 0 0 0 0 0 0 0 127 0" result="hardAlpha"/>
<feOffset dx="-1" dy="4"/>
<feGaussianBlur stdDeviation="2"/>
<feComposite in2="hardAlpha" operator="out"/>
<feColorMatrix type="matrix" values="0 0 0 0 0.183333 0 0 0 0 0.183333 0 0 0 0 0.183333 0 0 0 0.12 0"/>
<feBlend mode="normal" in2="BackgroundImageFix" result="effect1_dropShadow_981_3353"/>
<feBlend mode="normal" in="SourceGraphic" in2="effect1_dropShadow_981_3353" result="shape"/>
</filter>
</defs>
</svg>
