<svg width="69" height="70" viewBox="0 0 69 70" fill="none" xmlns="http://www.w3.org/2000/svg">
<g filter="url(#filter0_d_981_3350)">
<rect x="14.3516" width="53.5858" height="53.5858" rx="6" transform="rotate(11.1385 14.3516 0)" fill="white"/>
</g>
<path fill-rule="evenodd" clip-rule="evenodd" d="M40.7819 14.6269C45.0664 15.6914 48.7465 18.2692 51.2189 21.9566C53.8562 25.8897 54.8039 30.6142 53.8874 35.2596C51.9959 44.8457 42.6555 51.1094 33.068 49.2217C29.4626 48.5119 26.8157 46.84 25.1643 45.4672L15.4663 46.0693L19.7083 37.5452C18.7052 34.6086 18.493 31.4598 19.0977 28.3955C20.989 18.8095 30.3286 12.5465 39.9171 14.4343L40.7819 14.6269ZM26.2113 42.4036L26.6777 42.8207C28.6384 44.5746 31.0459 45.7723 33.6403 46.2841L33.6461 46.2853C41.6155 47.8544 49.3782 42.6483 50.9504 34.6803C51.7122 30.8191 50.9246 26.8923 48.7325 23.6232C46.5404 20.3539 43.2066 18.1339 39.3448 17.3722C31.3693 15.8019 23.6066 21.0073 22.0346 28.9748C21.4959 31.7053 21.7367 34.5152 22.731 37.101L22.9671 37.7156L20.4564 42.7609L26.2113 42.4036ZM44.4413 37.6947C44.3684 37.4919 44.1 37.3262 43.7082 37.0232C43.3163 36.7201 41.3862 35.2484 41.0164 35.0248C40.6465 34.8015 40.3709 34.672 39.9956 35.0498C39.6202 35.4276 38.5945 36.2423 38.2838 36.4823C37.9732 36.7223 37.7125 36.7087 37.3207 36.4057C36.9289 36.1027 35.6186 35.368 34.2498 33.561C33.1844 32.1546 32.5922 30.5602 32.4242 30.0753C32.2564 29.5905 32.5291 29.3999 32.7893 29.2262C33.0233 29.0699 33.324 28.8043 33.5913 28.5934C33.8586 28.3826 33.9667 28.2155 34.1687 27.9542C34.3706 27.6927 34.3481 27.4248 34.2823 27.186C34.2164 26.947 33.7682 24.6374 33.5773 23.6961C33.3912 22.7796 33.0102 22.8237 32.7461 22.7578C32.4953 22.6954 32.2058 22.6355 31.9161 22.5785C31.6263 22.5214 31.134 22.5374 30.6499 22.8939C30.1658 23.2504 28.836 24.0804 28.4149 26.2188C27.9939 28.3573 29.1447 30.7297 29.305 31.0625C29.4652 31.3954 31.4489 36.3441 35.4387 39.0846C36.3876 39.7365 37.1447 40.1631 37.7365 40.4877C38.7127 41.0233 39.6694 41.1633 40.4404 41.1988C41.3001 41.2386 43.219 40.6542 43.781 39.7108C44.3431 38.7671 44.5143 37.8973 44.4413 37.6947Z" fill="white"/>
<mask id="mask0_981_3350" style="mask-type:alpha" maskUnits="userSpaceOnUse" x="20" y="17" width="32" height="30">
<path fill-rule="evenodd" clip-rule="evenodd" d="M26.2124 42.4038L26.6788 42.8209C28.6395 44.5748 31.047 45.7725 33.6413 46.2843L33.6472 46.2855C41.6166 47.8546 49.3793 42.6485 50.9514 34.6805C51.7132 30.8193 50.9256 26.8925 48.7336 23.6234C46.5415 20.3541 43.2076 18.1341 39.3459 17.3724C31.3704 15.8021 23.6077 21.0075 22.0357 28.975C21.4969 31.7055 21.7377 34.5154 22.7321 37.1013L22.9682 37.7158L20.4575 42.7611L26.2124 42.4038ZM44.4423 37.6949C44.3694 37.4922 44.1011 37.3265 43.7092 37.0234C43.3174 36.7203 41.3873 35.2486 41.0174 35.025C40.6475 34.8018 40.372 34.6723 39.9966 35.05C39.6213 35.4278 38.5956 36.2425 38.2848 36.4825C37.9743 36.7225 37.7135 36.7089 37.3218 36.4059C36.9299 36.1029 35.6197 35.3683 34.2508 33.5613C33.1855 32.1548 32.5932 30.5604 32.4253 30.0755C32.2574 29.5907 32.5302 29.4001 32.7904 29.2264C33.0243 29.0702 33.3251 28.8045 33.5923 28.5936C33.8596 28.3828 33.9677 28.2157 34.1697 27.9544C34.3717 27.6929 34.3491 27.425 34.2833 27.1862C34.2175 26.9472 33.7693 24.6376 33.5783 23.6964C33.3922 22.7798 33.0113 22.8239 32.7471 22.758C32.4964 22.6956 32.2068 22.6357 31.9171 22.5787C31.6273 22.5216 31.135 22.5376 30.6509 22.8942C30.1669 23.2506 28.837 24.0807 28.416 26.219C27.9949 28.3575 29.1458 30.7299 29.306 31.0627C29.4662 31.3956 31.45 36.3443 35.4397 39.0848C36.3887 39.7367 37.1457 40.1633 37.7375 40.4879C38.7137 41.0236 39.6704 41.1635 40.4415 41.1991C41.3011 41.2388 43.2201 40.6544 43.7821 39.711C44.3441 38.7673 44.5154 37.8975 44.4423 37.6949Z" fill="black"/>
</mask>
<g mask="url(#mask0_981_3350)">
<path d="M65.1232 12.4462L16.2461 2.82275L6.62261 51.7L55.4997 61.3234L65.1232 12.4462Z" fill="url(#paint0_linear_981_3350)"/>
</g>
<defs>
<filter id="filter0_d_981_3350" x="0.0449219" y="1.04492" width="68.8379" height="68.8384" filterUnits="userSpaceOnUse" color-interpolation-filters="sRGB">
<feFlood flood-opacity="0" result="BackgroundImageFix"/>
<feColorMatrix in="SourceAlpha" type="matrix" values="0 0 0 0 0 0 0 0 0 0 0 0 0 0 0 0 0 0 127 0" result="hardAlpha"/>
<feOffset dx="-1" dy="4"/>
<feGaussianBlur stdDeviation="2"/>
<feComposite in2="hardAlpha" operator="out"/>
<feColorMatrix type="matrix" values="0 0 0 0 0.183333 0 0 0 0 0.183333 0 0 0 0 0.183333 0 0 0 0.12 0"/>
<feBlend mode="normal" in2="BackgroundImageFix" result="effect1_dropShadow_981_3350"/>
<feBlend mode="normal" in="SourceGraphic" in2="effect1_dropShadow_981_3350" result="shape"/>
</filter>
<linearGradient id="paint0_linear_981_3350" x1="31.0613" y1="56.5117" x2="40.6847" y2="7.6345" gradientUnits="userSpaceOnUse">
<stop stop-color="#25CF43"/>
<stop offset="1" stop-color="#61FD7D"/>
</linearGradient>
</defs>
</svg>
