<svg width="72" height="73" viewBox="0 0 72 73" fill="none" xmlns="http://www.w3.org/2000/svg">
<g filter="url(#filter0_d_981_3356)">
<rect x="4" y="13.4941" width="53.5858" height="53.5858" rx="6" transform="rotate(-14.5864 4 13.4941)" fill="white"/>
</g>
<path d="M32.7435 16.2089C28.2056 17.3898 27.6413 17.5578 25.8801 18.1027C24.1225 18.6471 22.9816 19.2447 22.0267 19.9343C21.0388 20.6471 20.2552 21.4606 19.5682 22.6314C18.8805 23.802 18.5522 24.8828 18.4099 26.0929C18.2723 27.2635 18.3064 28.5514 18.689 30.3504C19.0731 32.1535 19.2005 32.7288 20.3814 37.2667C21.5623 41.8047 21.7303 42.3672 22.2748 44.1286C22.8195 45.8861 23.4171 47.027 24.1064 47.982C24.8196 48.9699 25.633 49.7536 26.8038 50.4406C27.9741 51.1284 29.0552 51.4581 30.2645 51.5991C31.4351 51.7357 32.723 51.7013 34.5226 51.3199C36.326 50.9372 36.9003 50.809 41.4378 49.6282C45.976 48.4472 46.5386 48.2796 48.2998 47.7347C50.0574 47.1904 51.1996 46.5924 52.1552 45.9026C53.1428 45.1899 53.9247 44.3754 54.6112 43.2044C55.2989 42.0337 55.6272 40.9529 55.7695 39.7429C55.9037 38.5732 55.8696 37.2853 55.4904 35.4854C55.1066 33.6822 54.9797 33.1086 53.7988 28.5707C52.6179 24.0327 52.4488 23.4686 51.9049 21.7071C51.3585 19.95 50.7605 18.8091 50.0733 17.8536C49.3592 16.866 48.5457 16.0823 47.3746 15.3954C46.2033 14.7079 45.1253 14.3788 43.9143 14.2386C42.7416 14.1026 41.4534 14.1371 39.6534 14.5186C37.85 14.9012 37.2775 15.0291 32.7382 16.2103L32.7435 16.2089ZM32.0281 19.6102C32.4728 19.4937 32.9694 19.3652 33.527 19.2201C37.9883 18.0592 38.5212 17.9376 40.3038 17.5592C41.9523 17.2097 42.9073 17.2519 43.5558 17.3273C44.4144 17.4273 45.0645 17.6446 45.8012 18.0774C46.5382 18.51 47.0451 18.9728 47.5516 19.6736C47.9334 20.2024 48.436 21.0156 48.9341 22.6255C49.4726 24.3661 49.6277 24.8907 50.7881 29.35C51.9485 33.8093 52.0688 34.343 52.4471 36.1253C52.7966 37.7738 52.7545 38.7289 52.6789 39.3767C52.5789 40.2353 52.3607 40.8849 51.928 41.6216C51.4954 42.3586 51.0344 42.8651 50.3331 43.3709C49.8046 43.7538 48.9904 44.2556 47.3806 44.754C45.6401 45.2924 45.1155 45.4475 40.6542 46.6085C36.1926 47.7695 35.6593 47.8897 33.8771 48.268C32.2284 48.6167 31.2734 48.5746 30.6245 48.4993C29.766 48.3993 29.1148 48.1822 28.3778 47.7496C27.6408 47.3169 27.1342 46.8555 26.6277 46.1544C26.2459 45.6256 25.7432 44.8123 25.2451 43.2025C24.7067 41.4619 24.553 40.9369 23.3918 36.4748C22.2306 32.0127 22.1097 31.4822 21.7314 29.6999C21.3819 28.0514 21.424 27.0963 21.4995 26.4478C21.5994 25.5892 21.8172 24.9379 22.2498 24.2008C22.6824 23.4638 23.1452 22.9569 23.8459 22.4504C24.3751 22.0674 25.189 21.5657 26.7986 21.0669C28.3219 20.5962 28.9138 20.4198 32.027 19.606L32.0281 19.6102ZM43.1681 19.6736C42.0611 19.9616 41.3965 21.0924 41.6846 22.1998C41.9727 23.3068 43.1045 23.9712 44.2115 23.6831C45.3184 23.3951 45.9828 22.2632 45.6947 21.1562C45.4067 20.0492 44.2749 19.3848 43.1679 19.6729L43.1681 19.6736ZM34.8587 24.3373C30.12 25.5705 27.2778 30.4124 28.511 35.1512C29.7441 39.8901 34.5855 42.7306 39.3242 41.4975C44.0629 40.2644 46.9041 35.4246 45.671 30.6857C44.4378 25.9469 39.597 23.1043 34.8583 24.3374L34.8587 24.3373ZM35.6423 27.3485C38.7181 26.5481 41.8608 28.3927 42.6613 31.4689C43.4617 34.5448 41.6169 37.6877 38.5411 38.4881C35.4649 39.2886 32.3225 37.4436 31.5221 34.3676C30.7215 31.2914 32.5661 28.149 35.6423 27.3485Z" fill="url(#paint0_radial_981_3356)"/>
<path d="M32.7434 16.2089C28.2056 17.3898 27.6413 17.5578 25.8801 18.1027C24.1225 18.6471 22.9816 19.2447 22.0267 19.9343C21.0388 20.6471 20.2552 21.4606 19.5682 22.6314C18.8805 23.802 18.5522 24.8828 18.4099 26.0929C18.2723 27.2635 18.3064 28.5514 18.689 30.3504C19.0731 32.1535 19.2005 32.7288 20.3814 37.2667C21.5623 41.8047 21.7303 42.3672 22.2748 44.1286C22.8195 45.8861 23.4171 47.027 24.1064 47.982C24.8196 48.9699 25.633 49.7536 26.8038 50.4406C27.9741 51.1284 29.0552 51.4581 30.2645 51.5991C31.4351 51.7357 32.723 51.7013 34.5226 51.3199C36.326 50.9372 36.9003 50.809 41.4378 49.6282C45.976 48.4472 46.5386 48.2796 48.2998 47.7347C50.0574 47.1904 51.1996 46.5924 52.1552 45.9026C53.1428 45.1899 53.9247 44.3754 54.6112 43.2044C55.2989 42.0337 55.6272 40.9529 55.7695 39.7429C55.9037 38.5732 55.8696 37.2853 55.4904 35.4854C55.1066 33.6822 54.9797 33.1086 53.7988 28.5707C52.6179 24.0327 52.4488 23.4686 51.9049 21.7071C51.3585 19.95 50.7605 18.8091 50.0733 17.8536C49.3592 16.866 48.5457 16.0823 47.3746 15.3954C46.2033 14.7079 45.1253 14.3788 43.9143 14.2386C42.7416 14.1026 41.4534 14.1371 39.6534 14.5186C37.85 14.9012 37.2775 15.0291 32.7382 16.2103L32.7434 16.2089ZM32.0281 19.6102C32.4728 19.4937 32.9694 19.3652 33.527 19.2201C37.9883 18.0592 38.5212 17.9376 40.3038 17.5592C41.9523 17.2097 42.9073 17.2519 43.5558 17.3273C44.4144 17.4273 45.0645 17.6446 45.8012 18.0774C46.5382 18.51 47.0451 18.9728 47.5516 19.6736C47.9334 20.2024 48.436 21.0156 48.9341 22.6255C49.4726 24.3661 49.6277 24.8907 50.7881 29.35C51.9485 33.8093 52.0688 34.343 52.4471 36.1253C52.7966 37.7738 52.7545 38.7289 52.6789 39.3767C52.5789 40.2353 52.3607 40.8849 51.928 41.6216C51.4954 42.3586 51.0343 42.8651 50.3331 43.3709C49.8046 43.7538 48.9904 44.2556 47.3806 44.754C45.6401 45.2924 45.1155 45.4475 40.6542 46.6085C36.1926 47.7695 35.6593 47.8897 33.8771 48.268C32.2284 48.6167 31.2734 48.5746 30.6245 48.4993C29.766 48.3993 29.1148 48.1822 28.3778 47.7496C27.6408 47.3169 27.1342 46.8555 26.6277 46.1544C26.2459 45.6256 25.7432 44.8123 25.2451 43.2025C24.7067 41.4619 24.553 40.9369 23.3918 36.4748C22.2306 32.0127 22.1097 31.4822 21.7314 29.6999C21.3819 28.0514 21.424 27.0963 21.4995 26.4478C21.5994 25.5892 21.8172 24.9379 22.2498 24.2008C22.6824 23.4638 23.1452 22.9569 23.8459 22.4504C24.3751 22.0674 25.189 21.5657 26.7986 21.0669C28.3219 20.5962 28.9138 20.4198 32.027 19.606L32.0281 19.6102ZM43.1681 19.6736C42.0611 19.9616 41.3965 21.0924 41.6846 22.1998C41.9727 23.3068 43.1045 23.9712 44.2115 23.6831C45.3184 23.3951 45.9828 22.2632 45.6947 21.1562C45.4067 20.0492 44.2749 19.3848 43.1679 19.6729L43.1681 19.6736ZM34.8587 24.3373C30.12 25.5705 27.2778 30.4124 28.511 35.1512C29.7441 39.8901 34.5855 42.7306 39.3242 41.4975C44.0629 40.2644 46.9041 35.4246 45.671 30.6857C44.4378 25.9469 39.597 23.1043 34.8583 24.3374L34.8587 24.3373ZM35.6423 27.3485C38.7181 26.5481 41.8608 28.3927 42.6613 31.4689C43.4617 34.5448 41.6169 37.6877 38.5411 38.4881C35.4649 39.2886 32.3225 37.4436 31.522 34.3676C30.7215 31.2914 32.5661 28.149 35.6423 27.3485Z" fill="url(#paint1_radial_981_3356)"/>
<defs>
<filter id="filter0_d_981_3356" x="0.316406" y="1.31543" width="70.7207" height="70.7212" filterUnits="userSpaceOnUse" color-interpolation-filters="sRGB">
<feFlood flood-opacity="0" result="BackgroundImageFix"/>
<feColorMatrix in="SourceAlpha" type="matrix" values="0 0 0 0 0 0 0 0 0 0 0 0 0 0 0 0 0 0 127 0" result="hardAlpha"/>
<feOffset dx="-1" dy="4"/>
<feGaussianBlur stdDeviation="2"/>
<feComposite in2="hardAlpha" operator="out"/>
<feColorMatrix type="matrix" values="0 0 0 0 0.183333 0 0 0 0 0.183333 0 0 0 0 0.183333 0 0 0 0.12 0"/>
<feBlend mode="normal" in2="BackgroundImageFix" result="effect1_dropShadow_981_3356"/>
<feBlend mode="normal" in="SourceGraphic" in2="effect1_dropShadow_981_3356" result="shape"/>
</filter>
<radialGradient id="paint0_radial_981_3356" cx="0" cy="0" r="1" gradientUnits="userSpaceOnUse" gradientTransform="translate(34.276 54.2401) rotate(-104.586) scale(34.2235 31.8292)">
<stop stop-color="#FFDD55"/>
<stop offset="0.1" stop-color="#FFDD55"/>
<stop offset="0.5" stop-color="#FF543E"/>
<stop offset="1" stop-color="#C837AB"/>
</radialGradient>
<radialGradient id="paint1_radial_981_3356" cx="0" cy="0" r="1" gradientUnits="userSpaceOnUse" gradientTransform="translate(11.0621 24.4214) rotate(64.0947) scale(15.298 63.0567)">
<stop stop-color="#3771C8"/>
<stop offset="0.128" stop-color="#3771C8"/>
<stop offset="1" stop-color="#6600FF" stop-opacity="0"/>
</radialGradient>
</defs>
</svg>
