<svg width="12" height="12" viewBox="0 0 12 12" fill="none" xmlns="http://www.w3.org/2000/svg">
<path fill-rule="evenodd" clip-rule="evenodd" d="M1.125 6C1.125 3.30852 3.30852 1.125 6 1.125C8.69148 1.125 10.875 3.30852 10.875 6C10.875 8.69148 8.69148 10.875 6 10.875C3.30852 10.875 1.125 8.69148 1.125 6ZM6 1.875C3.72273 1.875 1.875 3.72273 1.875 6C1.875 8.27727 3.72273 10.125 6 10.125C8.27727 10.125 10.125 8.27727 10.125 6C10.125 3.72273 8.27727 1.875 6 1.875Z" fill="#FE3C3C"/>
<path fill-rule="evenodd" clip-rule="evenodd" d="M5.99506 3.37619C6.06429 3.37553 6.13293 3.38899 6.19679 3.41574C6.26069 3.44251 6.31845 3.48203 6.36656 3.53188C6.41466 3.58173 6.4521 3.64087 6.47657 3.70567C6.50105 3.77047 6.51205 3.83959 6.50891 3.9088L6.37459 6.7676C6.36519 6.96764 6.20027 7.12499 6.00002 7.125C5.79976 7.12501 5.63483 6.96767 5.62541 6.76763L5.49085 3.9088C5.48775 3.84042 5.49846 3.77211 5.52234 3.70796C5.54622 3.6438 5.58278 3.58512 5.62984 3.53541C5.6769 3.4857 5.73349 3.44598 5.79624 3.41862C5.85896 3.39128 5.92654 3.37685 5.99494 3.37619" fill="#FE3C3C"/>
<path d="M6 8.62289C5.90729 8.62289 5.81666 8.5954 5.73958 8.54389C5.66249 8.49239 5.60241 8.41918 5.56693 8.33352C5.53145 8.24787 5.52217 8.15362 5.54026 8.06269C5.55834 7.97176 5.60299 7.88824 5.66854 7.82268C5.7341 7.75713 5.81762 7.71248 5.90855 7.6944C5.99948 7.67631 6.09373 7.68559 6.17938 7.72107C6.26504 7.75655 6.33824 7.81663 6.38975 7.89372C6.44126 7.9708 6.46875 8.06143 6.46875 8.15414C6.46875 8.27846 6.41936 8.39769 6.33146 8.4856C6.24355 8.5735 6.12432 8.62289 6 8.62289Z" fill="#FE3C3C"/>
</svg>
