<svg width="22" height="22" viewBox="0 0 22 22" fill="none" xmlns="http://www.w3.org/2000/svg">
<path d="M15.4041 7.11281C15.9508 7.11281 16.3941 6.66957 16.3941 6.12281C16.3941 5.57605 15.9508 5.13281 15.4041 5.13281C14.8573 5.13281 14.4141 5.57605 14.4141 6.12281C14.4141 6.66957 14.8573 7.11281 15.4041 7.11281Z" fill="#2959C8"/>
<path d="M11.002 6.29102C10.1641 6.29102 9.34507 6.53947 8.6484 7.00497C7.95173 7.47047 7.40874 8.1321 7.0881 8.9062C6.76746 9.6803 6.68357 10.5321 6.84703 11.3539C7.01049 12.1756 7.41396 12.9305 8.00643 13.523C8.5989 14.1154 9.35375 14.5189 10.1755 14.6824C10.9973 14.8458 11.8491 14.7619 12.6232 14.4413C13.3973 14.1206 14.0589 13.5777 14.5244 12.881C14.9899 12.1843 15.2384 11.3653 15.2384 10.5274C15.2384 9.40383 14.792 8.3263 13.9976 7.53182C13.2031 6.73735 12.1256 6.29102 11.002 6.29102ZM11.002 13.2774C10.4581 13.2774 9.92642 13.1161 9.47418 12.8139C9.02195 12.5118 8.66947 12.0823 8.46133 11.5798C8.25319 11.0773 8.19873 10.5243 8.30484 9.99089C8.41095 9.45744 8.67286 8.96744 9.05746 8.58285C9.44205 8.19825 9.93206 7.93634 10.4655 7.83023C10.999 7.72412 11.5519 7.77858 12.0544 7.98672C12.5569 8.19486 12.9864 8.54734 13.2885 8.99957C13.5907 9.45181 13.752 9.98349 13.752 10.5274C13.752 11.2567 13.4623 11.9562 12.9465 12.4719C12.4308 12.9877 11.7313 13.2774 11.002 13.2774Z" fill="#2959C8"/>
<path d="M11 3.76372C13.2028 3.76372 13.464 3.77197 14.3337 3.81184C14.8568 3.81805 15.3749 3.9141 15.8654 4.09578C16.2213 4.23307 16.5445 4.44334 16.8143 4.71307C17.084 4.9828 17.2943 5.30601 17.4316 5.66191C17.6132 6.15246 17.7093 6.67058 17.7155 7.19366C17.7554 8.06334 17.7636 8.32459 17.7636 10.528C17.7636 12.7315 17.7554 12.9913 17.7155 13.861C17.7093 14.3841 17.6132 14.9022 17.4316 15.3928C17.2943 15.7487 17.084 16.0719 16.8143 16.3416C16.5445 16.6113 16.2213 16.8216 15.8654 16.9589C15.3749 17.1406 14.8568 17.2366 14.3337 17.2428C13.464 17.2827 13.2028 17.291 11 17.291C8.79725 17.291 8.536 17.2827 7.66631 17.2428C7.14324 17.2366 6.62511 17.1406 6.13456 16.9589C5.77867 16.8216 5.45546 16.6113 5.18573 16.3416C4.916 16.0719 4.70573 15.7487 4.56844 15.3928C4.38675 14.9022 4.29071 14.3841 4.2845 13.861C4.24463 12.9913 4.23638 12.7301 4.23638 10.5273C4.23638 8.32459 4.24463 8.06334 4.2845 7.19366C4.29071 6.67058 4.38675 6.15246 4.56844 5.66191C4.70573 5.30601 4.916 4.9828 5.18573 4.71307C5.45546 4.44334 5.77867 4.23307 6.13456 4.09578C6.62511 3.9141 7.14324 3.81805 7.66631 3.81184C8.536 3.77197 8.79725 3.76372 11 3.76372ZM11 2.27734C8.75944 2.27734 8.47825 2.28697 7.59825 2.32684C6.91403 2.34066 6.23711 2.47037 5.59625 2.71047C5.04812 2.92242 4.55033 3.24657 4.13477 3.66212C3.71922 4.07767 3.39508 4.57547 3.18313 5.12359C2.94295 5.76467 2.81324 6.44183 2.7995 7.12628C2.75963 8.00628 2.75 8.28609 2.75 10.5273C2.75 12.7686 2.75963 13.0491 2.7995 13.9291C2.81332 14.6133 2.94303 15.2902 3.18313 15.9311C3.39508 16.4792 3.71922 16.977 4.13477 17.3926C4.55033 17.8081 5.04812 18.1323 5.59625 18.3442C6.23733 18.5844 6.91449 18.7141 7.59894 18.7278C8.47894 18.7677 8.75944 18.7773 11 18.7773C13.2406 18.7773 13.5218 18.7677 14.4018 18.7278C15.0862 18.7141 15.7634 18.5844 16.4044 18.3442C16.9526 18.1323 17.4504 17.8081 17.8659 17.3926C18.2815 16.977 18.6056 16.4792 18.8176 15.9311C19.0575 15.29 19.187 14.6128 19.2005 13.9284C19.2404 13.0484 19.25 12.7686 19.25 10.5273C19.25 8.28609 19.2404 8.00559 19.2005 7.12559C19.1867 6.44138 19.057 5.76445 18.8169 5.12359C18.6049 4.57547 18.2808 4.07767 17.8652 3.66212C17.4497 3.24657 16.9519 2.92242 16.4038 2.71047C15.7626 2.47053 15.0855 2.34105 14.4011 2.32753C13.5211 2.28628 13.2413 2.27734 11 2.27734Z" fill="#2959C8"/>
</svg>
