<svg width="21" height="21" viewBox="0 0 21 21" fill="none" xmlns="http://www.w3.org/2000/svg">
<path d="M18.3763 5.11737C17.7975 5.37375 17.1749 5.54481 16.5182 5.62575C17.1859 5.22937 17.6995 4.59719 17.9406 3.85037C17.3158 4.21656 16.6237 4.48563 15.8874 4.62738C15.2994 4.00394 14.4607 3.61719 13.5314 3.61719C11.7464 3.61719 10.2996 5.05131 10.2996 6.81969C10.2996 7.06994 10.3289 7.31362 10.3841 7.55031C7.69869 7.41556 5.31694 6.13894 3.72356 4.20169C3.44356 4.67506 3.28606 5.22938 3.28606 5.81431C3.28606 6.926 3.85525 7.90469 4.72325 8.48131C4.19344 8.46513 3.69469 8.31769 3.25806 8.08144C3.25806 8.09106 3.25806 8.1055 3.25806 8.11906C3.25806 9.67263 4.37237 10.9663 5.84937 11.2608C5.57944 11.3347 5.29419 11.3758 5.00019 11.3758C4.7915 11.3758 4.58806 11.3522 4.39119 11.3168C4.80244 12.5864 5.9955 13.5143 7.40906 13.5419C6.30306 14.3994 4.91006 14.913 3.39544 14.913C3.13381 14.913 2.87788 14.8981 2.625 14.8675C4.05606 15.7736 5.75531 16.3047 7.57925 16.3047C13.5227 16.3047 16.7742 11.4239 16.7742 7.18981C16.7742 7.05113 16.7698 6.91288 16.7632 6.77638C17.3976 6.32838 17.9445 5.76312 18.3763 5.11737Z" fill="#2959C8"/>
</svg>
