<svg width="18" height="19" viewBox="0 0 18 19" fill="none" xmlns="http://www.w3.org/2000/svg">
<path d="M5.68956 1.50866C4.46829 1.47757 3.35515 2.30524 3.06968 3.54259L2.65367 5.34435C3.81392 3.45285 5.81102 2.20508 8.01939 1.99133L6.21763 1.57531C6.04087 1.53448 5.86402 1.5131 5.68956 1.50866ZM8.85508 3.15514C6.13801 3.21559 3.65973 5.02295 2.8712 7.77306C1.9007 11.1578 3.85792 14.6878 7.24229 15.6583C10.6267 16.6288 14.157 14.672 15.1275 11.2872C16.098 7.90247 14.1412 4.37247 10.7565 3.40197C10.1218 3.22 9.4821 3.14119 8.85508 3.15514ZM13.1852 3.18444C15.0767 4.34469 16.3244 6.34179 16.5382 8.55016L16.9542 6.7484C17.2808 5.33428 16.401 3.92671 14.9869 3.60046L13.1852 3.18444ZM7.57115 5.25133C7.67046 5.25902 7.77051 5.27703 7.86998 5.30553C8.6661 5.53353 9.1263 6.3639 8.8983 7.16003C8.6703 7.95615 7.8392 8.41635 7.04307 8.18835C6.24695 7.96035 5.78711 7.12998 6.01548 6.33385C6.21531 5.63724 6.87595 5.19755 7.57115 5.25133ZM11.8968 6.49206C11.9962 6.49977 12.0961 6.51771 12.1957 6.54626C12.9918 6.77426 13.4524 7.60462 13.224 8.40075C12.996 9.1965 12.1649 9.65707 11.3688 9.42907C10.5726 9.20107 10.1124 8.3707 10.3404 7.57458C10.5399 6.87797 11.2014 6.43809 11.8968 6.49206ZM9.01255 8.78088C9.42655 8.788 9.75576 9.12895 9.74864 9.54333C9.74151 9.95733 9.40056 10.2865 8.98619 10.2794C8.57219 10.2723 8.24298 9.93133 8.2501 9.51696C8.25723 9.10296 8.59818 8.77375 9.01255 8.78088ZM6.33116 9.57775C6.43051 9.58543 6.53047 9.60272 6.62999 9.63122C7.42611 9.85922 7.88668 10.6903 7.65831 11.4864C7.42993 12.2826 6.59883 12.7424 5.80308 12.514C5.00696 12.286 4.54639 11.4557 4.77476 10.6595C4.97426 9.96293 5.63571 9.52396 6.33116 9.57775ZM1.46055 10.5109L1.04454 12.3126C0.718288 13.7267 1.5977 15.1339 3.01182 15.4606L4.81358 15.8766C2.92246 14.7163 1.6743 12.7192 1.46055 10.5109ZM10.6561 10.8177C10.7555 10.8254 10.8562 10.8434 10.9557 10.8719C11.7518 11.0999 12.2116 11.9303 11.9833 12.7264C11.7549 13.5226 10.9249 13.9828 10.1288 13.7548C9.33264 13.5268 8.87244 12.6964 9.10044 11.9003C9.29994 11.2037 9.96066 10.764 10.6561 10.8177ZM15.3458 13.7159C14.1856 15.6071 12.1885 16.8552 9.98008 17.069L11.7818 17.485C13.196 17.8112 14.6032 16.9318 14.9298 15.5177L15.3458 13.7159Z" fill="#2959C8"/>
</svg>
