<svg width="24" height="24" viewBox="0 0 24 24" fill="none" xmlns="http://www.w3.org/2000/svg">
<path d="M11.9999 12C9.52016 12 7.33579 9.67031 7.12485 6.80625C7.01704 5.35312 7.46704 4.00781 8.39048 3.01875C9.29985 2.03906 10.5842 1.5 11.9999 1.5C13.4061 1.5 14.6858 2.04375 15.5999 3.02812C16.528 4.02656 16.978 5.36719 16.8702 6.80625C16.6592 9.67031 14.4749 12 11.9999 12ZM11.9999 3C11.0061 3 10.1108 3.37031 9.48735 4.04062C8.85454 4.72031 8.54516 5.66719 8.62016 6.69844C8.77016 8.76094 10.317 10.5047 11.9952 10.5047C13.6733 10.5047 15.2202 8.76094 15.3702 6.69844C15.4452 5.68125 15.1358 4.73906 14.4936 4.05C13.8749 3.37031 12.9842 3 11.9999 3Z" fill="#797979"/>
<path d="M20.2499 22.4999H3.74986C3.29986 22.4999 2.89674 22.3124 2.61549 21.9796C2.3108 21.614 2.18892 21.1171 2.27799 20.6155C2.67174 18.4218 3.90924 16.5749 5.84986 15.2859C7.57486 14.1374 9.75923 13.5046 11.9999 13.5046C14.2405 13.5046 16.4249 14.1374 18.1499 15.2859C20.0905 16.5796 21.328 18.4218 21.7217 20.6155C21.8108 21.1171 21.6889 21.614 21.3842 21.9796C21.103 22.3124 20.6999 22.4999 20.2499 22.4999ZM3.75924 20.9999H20.2405C20.2499 20.9765 20.2545 20.939 20.2452 20.878C19.5186 16.8421 15.4592 14.9999 11.9999 14.9999C8.54048 14.9999 4.48111 16.8421 3.75455 20.878C3.74517 20.939 3.74986 20.9765 3.75924 20.9999Z" fill="#797979"/>
</svg>
