<svg width="225" height="287" viewBox="0 0 225 287" fill="none" xmlns="http://www.w3.org/2000/svg">
<mask id="path-1-inside-1_981_3706" fill="white">
<path fill-rule="evenodd" clip-rule="evenodd" d="M27.9646 0.315292C27.7975 -0.105097 27.2025 -0.105097 27.0354 0.315292L24.0366 7.85854H12C5.37258 7.85854 0 13.2311 0 19.8585V274.704C0 281.331 5.37259 286.704 12 286.704H213C219.627 286.704 225 281.331 225 274.704V19.8585C225 13.2311 219.627 7.85854 213 7.85854H30.9634L27.9646 0.315292Z"/>
</mask>
<path fill-rule="evenodd" clip-rule="evenodd" d="M27.9646 0.315292C27.7975 -0.105097 27.2025 -0.105097 27.0354 0.315292L24.0366 7.85854H12C5.37258 7.85854 0 13.2311 0 19.8585V274.704C0 281.331 5.37259 286.704 12 286.704H213C219.627 286.704 225 281.331 225 274.704V19.8585C225 13.2311 219.627 7.85854 213 7.85854H30.9634L27.9646 0.315292Z" fill="#F9F9F9"/>
<path d="M27.0354 0.315292L27.9646 0.684708V0.684708L27.0354 0.315292ZM27.9646 0.315292L27.0354 0.684708V0.684708L27.9646 0.315292ZM24.0366 7.85854V8.85854H24.7152L24.9659 8.22795L24.0366 7.85854ZM30.9634 7.85854L30.0341 8.22795L30.2848 8.85854H30.9634V7.85854ZM27.9646 0.684708C27.7975 1.1051 27.2025 1.1051 27.0354 0.684708L28.8939 -0.0541248C28.3925 -1.31529 26.6075 -1.31529 26.1061 -0.0541248L27.9646 0.684708ZM24.9659 8.22795L27.9646 0.684708L26.1061 -0.0541249L23.1074 7.48912L24.9659 8.22795ZM12 8.85854H24.0366V6.85854H12V8.85854ZM1 19.8585C1 13.7834 5.92487 8.85854 12 8.85854V6.85854C4.8203 6.85854 -1 12.6788 -1 19.8585H1ZM1 274.704V19.8585H-1V274.704H1ZM12 285.704C5.92487 285.704 1 280.779 1 274.704H-1C-1 281.883 4.8203 287.704 12 287.704V285.704ZM213 285.704H12V287.704H213V285.704ZM224 274.704C224 280.779 219.075 285.704 213 285.704V287.704C220.18 287.704 226 281.883 226 274.704H224ZM224 19.8585V274.704H226V19.8585H224ZM213 8.85854C219.075 8.85854 224 13.7834 224 19.8585H226C226 12.6788 220.18 6.85854 213 6.85854V8.85854ZM30.9634 8.85854H213V6.85854H30.9634V8.85854ZM27.0354 0.684708L30.0341 8.22795L31.8926 7.48912L28.8939 -0.0541249L27.0354 0.684708Z" fill="#EEEEEE" mask="url(#path-1-inside-1_981_3706)"/>
</svg>
