<svg width="100" height="30" viewBox="0 0 100 30" fill="none" xmlns="http://www.w3.org/2000/svg">
<path d="M5.73047 25.0547H18.6406V29H0.789062V0.5625H5.73047V25.0547ZM71.8438 25.3086C70.8151 26.6497 69.3893 27.6654 67.5664 28.3555C65.7435 29.0456 63.6732 29.3906 61.3555 29.3906C58.9727 29.3906 56.8633 28.8503 55.0273 27.7695C53.1914 26.6888 51.7721 25.1458 50.7695 23.1406C49.7799 21.1224 49.2656 18.7721 49.2266 16.0898V13.8633C49.2266 9.56641 50.2552 6.21354 52.3125 3.80469C54.3698 1.38281 57.2409 0.171875 60.9258 0.171875C64.0898 0.171875 66.6029 0.953125 68.4648 2.51562C70.3268 4.07812 71.4466 6.33073 71.8242 9.27344H66.9805C66.4336 5.84896 64.4479 4.13672 61.0234 4.13672C58.8099 4.13672 57.1237 4.9375 55.9648 6.53906C54.819 8.1276 54.2266 10.4648 54.1875 13.5508V15.7383C54.1875 18.8112 54.832 21.2005 56.1211 22.9062C57.4232 24.599 59.2266 25.4453 61.5312 25.4453C64.0573 25.4453 65.8542 24.8724 66.9219 23.7266V18.1602H61.0625V14.4102H71.8438V25.3086Z" fill="#2959C8"/>
<path d="M45.125 15.5234C45.125 18.3099 44.6432 20.7578 43.6797 22.8672C42.7161 24.9635 41.3359 26.5781 39.5391 27.7109C37.7552 28.8307 35.6979 29.3906 33.3672 29.3906C31.0625 29.3906 29.0052 28.8307 27.1953 27.7109C25.3984 26.5781 24.0052 24.9701 23.0156 22.8867C22.0391 20.8034 21.5443 18.401 21.5312 15.6797V14.0781C21.5312 11.3047 22.0195 8.85677 22.9961 6.73438C23.9857 4.61198 25.3724 2.99089 27.1562 1.87109C28.9531 0.738281 31.0104 0.171875 33.3281 0.171875C35.6458 0.171875 37.6966 0.731771 39.4805 1.85156C41.2773 2.95833 42.6641 4.5599 43.6406 6.65625C44.6172 8.73958 45.112 11.168 45.125 13.9414V15.5234ZM40.1836 14.0391C40.1836 10.888 39.5846 8.47266 38.3867 6.79297C37.2018 5.11328 35.5156 4.27344 33.3281 4.27344C31.1927 4.27344 29.5195 5.11328 28.3086 6.79297C27.1107 8.45964 26.4987 10.8229 26.4727 13.8828V15.5234C26.4727 18.6484 27.0781 21.0638 28.2891 22.7695C29.513 24.4753 31.2057 25.3281 33.3672 25.3281C35.5547 25.3281 37.2344 24.4948 38.4062 22.8281C39.5911 21.1615 40.1836 18.7266 40.1836 15.5234V14.0391ZM99.9688 15.5234C99.9688 18.3099 99.487 20.7578 98.5234 22.8672C97.5599 24.9635 96.1797 26.5781 94.3828 27.7109C92.599 28.8307 90.5417 29.3906 88.2109 29.3906C85.9062 29.3906 83.849 28.8307 82.0391 27.7109C80.2422 26.5781 78.849 24.9701 77.8594 22.8867C76.8828 20.8034 76.388 18.401 76.375 15.6797V14.0781C76.375 11.3047 76.8633 8.85677 77.8398 6.73438C78.8294 4.61198 80.2161 2.99089 82 1.87109C83.7969 0.738281 85.8542 0.171875 88.1719 0.171875C90.4896 0.171875 92.5404 0.731771 94.3242 1.85156C96.1211 2.95833 97.5078 4.5599 98.4844 6.65625C99.4609 8.73958 99.9557 11.168 99.9688 13.9414V15.5234ZM95.0273 14.0391C95.0273 10.888 94.4284 8.47266 93.2305 6.79297C92.0456 5.11328 90.3594 4.27344 88.1719 4.27344C86.0365 4.27344 84.3633 5.11328 83.1523 6.79297C81.9544 8.45964 81.3424 10.8229 81.3164 13.8828V15.5234C81.3164 18.6484 81.9219 21.0638 83.1328 22.7695C84.3568 24.4753 86.0495 25.3281 88.2109 25.3281C90.3984 25.3281 92.0781 24.4948 93.25 22.8281C94.4349 21.1615 95.0273 18.7266 95.0273 15.5234V14.0391Z" fill="#FF8162"/>
</svg>
